PathFileType	4	(X/Y/Z)	Patient4_TMGait_0pt8_01_right_10.trc.trc
DataRate	CameraRate	NumFrames	NumMarkers	Units	OrigDataRate	OrigDataStartFrame	OrigNumFrames
85.889570552147	85.889570552147	5	33	mm	85.889570552147	124	       141
Frame#	Time	Sacral			L.Shoulder			Chest			R.Shoulder			Neck			R.ASIS			L.ASIS			R.Thigh.Superior			R.Thigh.Lateral			R.Thigh.Inferior			R.Patella			L.Thigh.Superior			L.Thigh.Lateral			L.Thigh.Inferior			L.Patella			L.Shank.Superior			L.Shank.Lateral			L.Shank.Inferior			R.Shank.Superior			R.Shank.Lateral			R.Shank.Inferior			R.Heel			R.Midfoot.Superior			R.Midfoot.Lateral			R.Toe			L.Heel			L.Midfoot.Lateral			L.Midfoot.Superior			L.Toe			L.Elbow			L.Wrist			R.Elbow			R.Wrist			
		X1	Y1	Z1	X2	Y2	Z2	X3	Y3	Z3	X4	Y4	Z4	X5	Y5	Z5	X6	Y6	Z6	X7	Y7	Z7	X8	Y8	Z8	X9	Y9	Z9	X10	Y10	Z10	X11	Y11	Z11	X12	Y12	Z12	X13	Y13	Z13	X14	Y14	Z14	X15	Y15	Z15	X16	Y16	Z16	X17	Y17	Z17	X18	Y18	Z18	X19	Y19	Z19	X20	Y20	Z20	X21	Y21	Z21	X22	Y22	Z22	X23	Y23	Z23	X24	Y24	Z24	X25	Y25	Z25	X26	Y26	Z26	X27	Y27	Z27	X28	Y28	Z28	X29	Y29	Z29	X30	Y30	Z30	X31	Y31	Z31	X32	Y32	Z32	X33	Y33	Z33	

124	12.372071428571	846.882174316449	989.290955426254	456.833478456497	1048.872724698316	1419.999158713061	293.920460289577	1134.239346435188	1343.975336328337	461.754158590990	1036.220316480418	1416.073409057074	628.812229729882	1021.861102393973	1476.626491733987	449.415368305495	1065.733443112877	928.053932402440	590.586833159926	1068.232603473023	939.861566874168	314.454782281952	1135.367919712289	751.242608875836	567.512564042443	1083.010270453473	630.078815877269	636.104768899388	1171.773498360728	592.239703362972	558.900141137207	1199.706546269106	513.188949471075	574.734532691950	1054.018843957460	710.600873032693	342.718308236736	928.831303563698	625.864272568469	277.935196971210	978.886604636065	526.577633035082	342.681462880722	957.288509729218	460.279204868532	352.273303348181	915.898248296967	398.087793419157	343.235310131653	801.954645897645	307.803173683988	292.870583054578	823.893092538834	188.027087323341	362.963772615782	1191.693171102118	422.988926521624	584.919924200252	1142.781435658773	305.397078751422	643.513830999686	1219.163506728866	224.980186414026	593.283349639909	1134.109127845013	42.571595947600	557.595794682213	1295.227050349221	112.183014251087	604.918639118029	1214.849680197143	39.578717775891	635.235856812426	1418.179197490460	72.173540176312	636.025959884432	669.654881448973	48.673262420884	405.918815564978	741.896180548609	39.335606049730	325.058458918913	829.122109378177	96.902021871625	349.398634982537	953.365715058603	38.876352984657	317.765422822324	1145.804475129326	1107.164408089298	141.901508846547	1395.558939291138	1114.329244134913	192.451967079520	852.144890440102	1122.551516963479	713.285855897665	767.348616703777	877.794035826811	725.928377007041	
125	12.383714285714	848.204273091946	988.056467657712	459.638467919882	1049.093086475936	1418.336403090853	295.684847494631	1134.855983614901	1343.158179779445	463.718050959026	1036.700657275840	1415.329436738203	630.722045072650	1022.204815724475	1475.584425989835	451.129019069284	1067.155335396465	926.794403241213	593.648312639728	1069.844163764387	938.573385880084	317.304310021405	1137.183948384986	749.966366419036	570.885187877090	1082.236669903454	627.826859002847	636.479121176993	1172.982436876720	591.246517987052	561.143559035937	1199.081917770894	510.725170306724	575.135424673069	1055.431848978876	709.498065139832	344.631401858287	929.900508736231	624.946600541546	280.123463264834	980.481145928512	525.054214818551	343.988349519239	958.627124053741	457.645033141751	353.107405886702	915.113771363968	396.407627054019	344.096186299495	798.712102821798	309.239882260852	293.618093343434	817.845192485007	188.469181699460	362.708728940270	1190.198450020930	419.998448295905	584.379023288846	1139.060628581982	302.805756839660	641.817208294260	1213.737163381028	221.508038478779	591.095901035240	1124.318725469711	42.114515697820	554.851408563652	1287.068243241424	108.012455135757	601.488469641326	1204.894483019198	38.253987283591	632.731714567504	1409.207464050376	65.376699039593	633.047780321726	660.705108177738	51.982715289602	405.289827793464	732.837239395995	40.746936355071	324.699577761341	820.951672420096	97.290174043462	348.660533562549	944.089219766131	38.709216539646	317.661042139224	1144.945165177463	1104.065377189126	144.830133247847	1394.667679648009	1111.320616451418	195.897829656858	855.546925382388	1119.751333087404	716.151805738723	771.462817019730	874.769388946114	729.256101433718	
126	12.395357142857	849.513441210441	987.284545795841	462.480945885614	1049.461279931527	1417.075659800944	297.568510213514	1135.595866257752	1342.693541790631	465.804839826105	1037.317839658594	1414.952639290656	632.760707033689	1022.692321860070	1474.956004100401	452.965844020860	1068.611510439295	926.028597513980	596.768543771634	1071.374249570289	937.652763020780	320.190123047141	1139.291583555361	749.292514315043	574.243919959809	1082.028641162531	626.348948289491	637.094908965855	1174.526041954825	590.811831089522	563.389676847419	1198.948311493245	508.753194098676	575.636425211840	1057.151842817580	708.767867494338	346.617867653070	931.556796730442	624.097926168144	282.353222481492	983.021838037679	523.687694798634	345.267424659149	961.040535204687	455.005375153074	353.718843754309	915.134913256123	394.818219303684	344.847498240621	796.132848097068	311.111245205478	294.407424527232	812.328582922127	189.296301430191	362.364009300261	1188.937615805947	417.567536559786	584.055827339694	1135.661018269128	300.991751295516	640.894751450079	1208.111598584575	218.549273282779	589.369800207610	1113.919705561371	41.922434135240	552.997224464815	1278.298145984843	104.459021464926	598.647055692322	1194.449314485723	37.385275292146	631.025187968690	1399.733103138229	59.411680208160	630.563043219568	652.032317182142	56.268685244062	404.652496737904	723.888027551953	42.719287362418	324.335360766902	813.138807808436	97.822891336186	347.798304048849	934.748464191192	38.505211709734	317.580667416940	1143.372803444928	1100.921438706140	148.025425049677	1393.272292865727	1106.903678918877	199.305235354714	859.689674776641	1116.817126974606	719.199463116127	777.424687296278	871.175085538238	732.786605501366	
127	12.407000000000	850.788369108449	987.006737744098	465.334491011483	1049.984125429684	1416.285774912703	299.556174828068	1136.444608260372	1342.608215289617	467.990059823956	1038.080275959342	1414.987190246353	634.898558396057	1023.317588105336	1474.778063210815	454.908684563162	1070.069961365240	925.801174893901	599.905376781887	1072.767465154144	937.144849097271	323.095079119888	1141.537484934300	749.186137560481	577.470344774778	1082.386445483601	625.692097821589	638.066467744183	1176.172849759937	590.845210238603	565.572665850396	1199.109217870715	507.289186422100	576.367309390507	1059.168705586840	708.444860140230	348.660588380954	933.845462134134	623.321080560846	284.580275114840	986.584232860456	522.510955360422	346.473555099623	964.599048566270	452.420877033647	354.046932599765	916.059417395343	393.359037266506	345.439316122217	794.325984531966	313.477695883741	295.224288461885	807.466517724267	190.589899326214	361.925149721106	1187.784160661167	415.732055947145	584.076743359583	1132.538957421735	299.939318863870	640.812907022451	1202.399733021412	216.194397526142	588.214248019026	1103.381120135713	41.921399257014	551.981274440206	1269.229289090964	101.669677579358	596.537945952870	1183.948851687750	36.905579532821	630.084460604403	1390.101489050141	54.592222305582	628.703009353073	643.764081643125	61.721138992947	404.021423026845	715.127809901733	45.426048608383	323.974946849015	805.771970958799	98.554413930053	346.834708329095	925.335364044142	38.225224900452	317.537776061503	1141.083428129859	1097.844438323392	151.504423282574	1391.348192500464	1101.079861953685	202.656106916464	864.498392882537	1113.914048827448	722.407242764559	785.220451790981	867.178752676531	736.480234650672	
128	12.418642857143	852.011603895406	987.220066191364	468.193593747143	1050.648176289899	1416.005171908624	301.629287225489	1137.377498886819	1342.903947973947	470.242927814839	1038.985733196446	1415.449106881925	637.101150167485	1024.055053231096	1475.055459328198	456.934891499860	1071.504344333375	926.113935294299	603.028799613668	1073.978741967805	937.075144500001	326.016667947894	1143.759359921585	749.565902208512	580.468822699328	1083.221757345949	625.808911758720	639.443327201986	1177.692896058820	591.216511818133	567.647800771488	1199.324174165358	506.280824046840	577.414921773204	1061.488336394562	708.546601832520	350.744552618200	936.824938437416	622.612531344689	286.762976855728	991.243053845977	521.549960652852	347.566039477110	969.366524235539	449.953217047341	354.054871663345	917.998946289334	392.062010581804	345.837421988531	793.426683627896	316.382226406010	296.053291880404	803.396741948771	192.425228787491	361.400083425752	1186.561085096502	414.448672550089	584.505342372914	1129.536107271719	299.549638495639	641.510392503985	1196.617643454370	214.445727606582	587.652434983073	1093.006786922799	42.042399174022	551.670187715462	1260.068560944430	99.679884293848	595.198224987049	1173.661025487252	36.724633276735	629.799141783618	1380.524625742841	51.026028537498	627.499637696534	636.059229683137	68.521484577677	403.406233362509	706.671965683504	49.056942555734	323.623974110049	798.951837905543	99.559102764321	345.807893282599	915.863715009351	37.822379905971	317.543391726935	1138.089746654946	1094.944834544682	155.276614573836	1388.843052067086	1093.853197956358	205.934244351733	869.904226532652	1111.174696461254	725.755135595694	794.836194710496	862.950863833446	740.290827073160	
